<?xml version="1.0" encoding="UTF-8" standalone="no" ?>
<!DOCTYPE svg PUBLIC "-//W3C//DTD SVG 1.1//EN" "http://www.w3.org/Graphics/SVG/1.1/DTD/svg11.dtd">
<svg xmlns="http://www.w3.org/2000/svg" xmlns:xlink="http://www.w3.org/1999/xlink" version="1.1" width="1080" height="1080" viewBox="0 0 1080 1080" xml:space="preserve">
<desc>Created with Fabric.js 5.2.4</desc>
<defs>
</defs>
<rect x="0" y="0" width="100%" height="100%" fill="transparent"></rect>
<g transform="matrix(1 0 0 1 540 540)" id="fae10735-2685-4fec-b0e2-cd9d5c445b01"  >
<rect style="stroke: none; stroke-width: 1; stroke-dasharray: none; stroke-linecap: butt; stroke-dashoffset: 0; stroke-linejoin: miter; stroke-miterlimit: 4; fill: rgb(255,255,255); fill-rule: nonzero; opacity: 1; visibility: hidden;" vector-effect="non-scaling-stroke"  x="-540" y="-540" rx="0" ry="0" width="1080" height="1080" />
</g>
<g transform="matrix(1 0 0 1 540 540)" id="c6b788c5-e2ca-41f7-a5bb-a3d5e2260e35"  >
</g>
<g transform="matrix(30 0 0 30 540 540)"  >
<g style=""   >
		<g transform="matrix(1 0 0 1 9.75 -9.75)"  >
<path style="stroke: none; stroke-width: 1; stroke-dasharray: none; stroke-linecap: butt; stroke-dashoffset: 0; stroke-linejoin: miter; stroke-miterlimit: 4; fill: rgb(3,105,161); fill-rule: evenodd; opacity: 1;" vector-effect="non-scaling-stroke"  transform=" translate(-27.75, -8.25)" d="M 27.75 1.875 C 28.3713 1.875 28.875 2.37868 28.875 3 L 28.875 7.125 L 33 7.125 C 33.6213 7.125 34.125 7.62868 34.125 8.25 C 34.125 8.87132 33.6213 9.375 33 9.375 L 28.875 9.375 L 28.875 13.5 C 28.875 14.1213 28.3713 14.625 27.75 14.625 C 27.1287 14.625 26.625 14.1213 26.625 13.5 L 26.625 9.375 L 22.5 9.375 C 21.8787 9.375 21.375 8.87132 21.375 8.25 C 21.375 7.62868 21.8787 7.125 22.5 7.125 L 26.625 7.125 L 26.625 3 C 26.625 2.37868 27.1287 1.875 27.75 1.875 Z" stroke-linecap="round" />
</g>
		<g transform="matrix(1 0 0 1 0 0)"  >
<path style="stroke: none; stroke-width: 1; stroke-dasharray: none; stroke-linecap: butt; stroke-dashoffset: 0; stroke-linejoin: miter; stroke-miterlimit: 4; fill: rgb(3,105,161); fill-rule: evenodd; opacity: 1;" vector-effect="non-scaling-stroke"  transform=" translate(-18, -18)" d="M 18 1.875 L 17.9139 1.875 C 14.4513 1.87498 11.7378 1.87497 9.62056 2.15962 C 7.45345 2.45098 5.74342 3.05899 4.4012 4.4012 C 3.05899 5.74342 2.45098 7.45345 2.15962 9.62056 C 1.87497 11.7378 1.87498 14.4513 1.875 17.9139 L 1.875 18.0861 C 1.87498 21.5487 1.87497 24.2622 2.15962 26.3794 C 2.45098 28.5465 3.05899 30.2566 4.4012 31.5988 C 5.74342 32.941 7.45345 33.549 9.62056 33.8404 C 11.7378 34.125 14.4513 34.125 17.9139 34.125 L 18.0861 34.125 C 21.5487 34.125 24.2622 34.125 26.3794 33.8404 C 28.5465 33.549 30.2566 32.941 31.5988 31.5988 C 32.941 30.2566 33.549 28.5465 33.8404 26.3794 C 34.125 24.2622 34.125 21.5487 34.125 18.0861 L 34.125 18 C 34.125 17.3787 33.6213 16.875 33 16.875 C 32.3787 16.875 31.875 17.3787 31.875 18 C 31.875 21.5673 31.8726 24.1297 31.6104 26.0796 C 31.6001 26.1566 31.5894 26.2323 31.5783 26.3068 L 27.4173 22.5619 C 25.4682 20.8076 22.5655 20.633 20.42 22.1407 L 19.9727 22.4551 C 19.2273 22.979 18.2131 22.8912 17.5688 22.2469 L 11.1342 15.8123 C 9.43111 14.1092 6.6992 14.0182 4.88657 15.6042 L 4.12646 16.2693 C 4.13329 13.5809 4.17186 11.5395 4.38956 9.92037 C 4.64737 8.00276 5.13771 6.84668 5.99219 5.99219 C 6.84668 5.13771 8.00276 4.64737 9.92037 4.38956 C 11.8703 4.12739 14.4327 4.125 18 4.125 C 18.6213 4.125 19.125 3.62132 19.125 3 C 19.125 2.37868 18.6213 1.875 18 1.875 Z M 4.38956 26.0796 C 4.64737 27.9972 5.13771 29.1533 5.99219 30.0078 C 6.84668 30.8623 8.00276 31.3526 9.92037 31.6104 C 11.8703 31.8726 14.4327 31.875 18 31.875 C 21.5673 31.875 24.1297 31.8726 26.0796 31.6104 C 27.9972 31.3526 29.1533 30.8623 30.0078 30.0078 C 30.3731 29.6425 30.6719 29.2221 30.9143 28.7106 C 30.856 28.6749 30.8001 28.6334 30.7474 28.586 L 25.9121 24.2343 C 24.7426 23.1817 23.001 23.0769 21.7138 23.9816 L 21.2665 24.296 C 19.6264 25.4485 17.3952 25.2553 15.9778 23.8379 L 9.54323 17.4033 C 8.67772 16.5378 7.28937 16.4915 6.36819 17.2976 L 4.12557 19.2598 C 4.12944 22.1826 4.15933 24.3672 4.38956 26.0796 Z" stroke-linecap="round" />
</g>
</g>
</g>
<g transform="matrix(NaN NaN NaN NaN 0 0)"  >
<g style=""   >
</g>
</g>
<g transform="matrix(NaN NaN NaN NaN 0 0)"  >
<g style=""   >
</g>
</g>
</svg>